<svg xmlns="http://www.w3.org/2000/svg" width="40" height="40" viewBox="0 0 40 40" fill="none">
  <rect width="40" height="40" rx="8" fill="#E63946"/>
  <path d="M13 10H22.5C25.5376 10 28 12.4624 28 15.5C28 17.0848 27.3334 18.5118 26.2641 19.5C27.9203 20.4118 29 22.0848 29 24C29 26.7614 26.7614 29 24 29H13V10Z" fill="white"/>
  <path d="M16.5 13V18.5H22C23.3807 18.5 24.5 17.3807 24.5 16C24.5 14.6193 23.3807 13.5 22 13.5L16.5 13Z" fill="#E63946"/>
  <path d="M16.5 21V26H23.5C24.8807 26 26 24.8807 26 23.5C26 22.1193 24.8807 21 23.5 21H16.5Z" fill="#E63946"/>
</svg>
